<svg width="698" height="803" viewBox="0 0 698 803" fill="none" xmlns="http://www.w3.org/2000/svg">
<rect width="698" height="803" fill="#3354FF"/>
<path d="M170.832 520.92H207.248V527.384H192.72V567H185.36V527.384H170.832V520.92ZM220.72 526.232C219.526 526.232 218.502 525.848 217.649 525.08C216.795 524.312 216.369 523.267 216.369 521.944C216.369 520.621 216.795 519.576 217.649 518.808C218.502 518.04 219.526 517.656 220.72 517.656C222.001 517.656 223.046 518.04 223.857 518.808C224.667 519.576 225.073 520.621 225.073 521.944C225.073 523.267 224.667 524.312 223.857 525.08C223.046 525.848 222.001 526.232 220.72 526.232ZM217.137 567V543.064C217.137 542.211 217.115 541.123 217.073 539.8C217.073 538.435 217.03 537.091 216.945 535.768C216.902 534.445 216.795 533.4 216.625 532.632L216.753 532.12H224.305V567H217.137ZM252.973 567.576C249.773 567.576 246.936 567.192 244.461 566.424C242.029 565.656 239.981 564.525 238.317 563.032C236.653 561.496 235.394 559.597 234.541 557.336C233.73 555.075 233.325 552.451 233.325 549.464C233.325 545.752 234.008 542.552 235.373 539.864C236.738 537.133 238.658 535.043 241.133 533.592C243.608 532.099 246.53 531.352 249.901 531.352C253.698 531.352 256.77 532.141 259.117 533.72C261.464 535.256 263.149 537.432 264.173 540.248C265.24 543.021 265.688 546.243 265.517 549.912L265.453 551.832H238.125V546.584H258.285V546.072C258.285 543.128 257.581 540.909 256.173 539.416C254.765 537.88 252.653 537.112 249.837 537.112C248.173 537.112 246.637 537.475 245.229 538.2C243.821 538.925 242.69 540.163 241.837 541.912C241.026 543.619 240.621 545.944 240.621 548.888V549.72C240.621 552.749 241.154 555.139 242.221 556.888C243.33 558.595 244.845 559.811 246.765 560.536C248.728 561.261 250.946 561.624 253.421 561.624C255.554 561.624 257.389 561.432 258.925 561.048C260.504 560.621 261.741 560.152 262.637 559.64H263.213V565.72C262.104 566.232 260.696 566.659 258.989 567C257.325 567.384 255.32 567.576 252.973 567.576ZM274.574 567V545.048C274.574 544.195 274.553 543.107 274.51 541.784C274.51 540.419 274.467 539.075 274.382 537.752C274.339 536.429 274.233 535.384 274.062 534.616L274.19 534.104C275.385 533.635 276.835 533.187 278.542 532.76C280.291 532.333 282.062 531.992 283.854 531.736C285.689 531.48 287.331 531.352 288.782 531.352C290.958 531.352 292.985 531.587 294.862 532.056C296.739 532.483 298.425 533.272 299.918 534.424C301.411 535.533 302.563 537.091 303.374 539.096C304.227 541.059 304.654 543.576 304.654 546.648V567H297.486V547.096C297.486 544.493 297.102 542.488 296.334 541.08C295.609 539.672 294.521 538.712 293.07 538.2C291.662 537.645 289.977 537.368 288.014 537.368C286.691 537.368 285.305 537.517 283.854 537.816C282.403 538.115 281.123 538.456 280.014 538.84L281.166 536.856C281.379 537.496 281.529 538.307 281.614 539.288C281.699 540.269 281.742 541.336 281.742 542.488V567H274.574ZM331.882 567.768C327.999 567.768 324.671 567.064 321.898 565.656C319.167 564.248 317.077 562.179 315.626 559.448C314.175 556.717 313.45 553.389 313.45 549.464C313.45 545.667 314.218 542.424 315.754 539.736C317.29 537.005 319.445 534.936 322.218 533.528C324.991 532.077 328.234 531.352 331.946 531.352C333.439 531.352 334.762 531.459 335.914 531.672C337.109 531.885 338.026 532.141 338.666 532.44L338.474 538.328C337.962 538.115 337.215 537.88 336.234 537.624C335.295 537.368 334.101 537.24 332.65 537.24C328.767 537.24 325.802 538.307 323.754 540.44C321.749 542.531 320.746 545.539 320.746 549.464C320.746 552.237 321.173 554.541 322.026 556.376C322.922 558.211 324.223 559.597 325.93 560.536C327.679 561.432 329.813 561.88 332.33 561.88C333.781 561.88 335.039 561.752 336.106 561.496C337.215 561.24 338.197 560.92 339.05 560.536L338.09 562.584C337.877 561.859 337.727 561.005 337.642 560.024C337.557 559 337.514 557.933 337.514 556.824V529.56C337.514 528.664 337.493 527.512 337.45 526.104C337.407 524.696 337.343 523.331 337.258 522.008C337.215 520.643 337.109 519.597 336.938 518.872L337.066 518.36H344.682V554.264C344.682 555.117 344.682 556.227 344.682 557.592C344.725 558.957 344.767 560.301 344.81 561.624C344.895 562.904 345.023 563.928 345.194 564.696L345.002 565.208C343.21 565.891 341.226 566.488 339.05 567C336.917 567.512 334.527 567.768 331.882 567.768ZM368.874 567.768C363.754 567.768 359.893 566.872 357.29 565.08C354.687 563.288 353.386 560.493 353.386 556.696C353.386 554.221 354.005 552.173 355.242 550.552C356.479 548.931 358.229 547.715 360.49 546.904C362.751 546.093 365.397 545.688 368.426 545.688C370.602 545.688 372.437 545.88 373.93 546.264C375.423 546.605 376.746 546.947 377.898 547.288V552.344C376.874 552.003 375.573 551.704 373.994 551.448C372.458 551.149 371.007 551 369.642 551C366.485 551 364.117 551.427 362.538 552.28C361.002 553.091 360.234 554.563 360.234 556.696C360.234 558.701 360.981 560.152 362.474 561.048C363.967 561.901 366.122 562.328 368.938 562.328C370.559 562.328 372.117 562.2 373.61 561.944C375.103 561.645 376.49 561.219 377.77 560.664L376.554 562.776C376.426 562.349 376.319 561.901 376.234 561.432C376.149 560.963 376.063 560.493 375.978 560.024C375.935 559.512 375.893 558.957 375.85 558.36C375.85 557.763 375.85 557.08 375.85 556.312V545.944C375.85 543.469 375.487 541.613 374.762 540.376C374.079 539.096 373.034 538.264 371.626 537.88C370.218 537.453 368.447 537.24 366.314 537.24C364.607 537.24 362.901 537.453 361.194 537.88C359.487 538.264 358.122 538.691 357.098 539.16H356.522V533.144C358.058 532.547 359.765 532.099 361.642 531.8C363.562 531.501 365.418 531.352 367.21 531.352C369.471 531.352 371.541 531.544 373.418 531.928C375.338 532.312 377.002 533.037 378.41 534.104C379.861 535.128 380.97 536.6 381.738 538.52C382.549 540.397 382.954 542.872 382.954 545.944V554.2C382.954 555.053 382.954 556.163 382.954 557.528C382.997 558.893 383.061 560.237 383.146 561.56C383.231 562.84 383.359 563.864 383.53 564.632L383.338 565.144C381.93 565.656 380.373 566.125 378.666 566.552C376.959 566.936 375.253 567.235 373.546 567.448C371.839 567.661 370.282 567.768 368.874 567.768ZM407.193 567L412.312 536.408C412.739 533.677 413.422 531.309 414.361 529.304C415.299 527.299 416.515 525.635 418.009 524.312C419.545 522.989 421.443 522.008 423.705 521.368C426.009 520.728 428.761 520.408 431.961 520.408C433.539 520.408 435.161 520.493 436.825 520.664C438.531 520.835 440.217 521.112 441.881 521.496L442.009 522.264C441.881 523.075 441.774 524.12 441.689 525.4C441.646 526.68 441.625 527.981 441.625 529.304C441.625 530.584 441.625 531.651 441.625 532.504V567H434.265V530.2C434.265 529.261 434.265 528.387 434.265 527.576C434.307 526.765 434.414 525.997 434.585 525.272L435.737 527.32C435.182 527.107 434.499 526.957 433.689 526.872C432.921 526.787 432.089 526.744 431.193 526.744C428.59 526.744 426.521 527.107 424.985 527.832C423.449 528.557 422.275 529.624 421.465 531.032C420.697 532.44 420.121 534.253 419.737 536.472L414.681 567H407.193ZM413.977 553.496V547.224H437.465V553.496H413.977ZM457.486 552.472V546.2H467.598C470.03 546.2 472.014 545.688 473.55 544.664C475.128 543.64 476.28 542.275 477.006 540.568C477.731 538.819 478.094 536.899 478.094 534.808C478.094 532.035 477.347 530.093 475.854 528.984C474.403 527.832 472.462 527.256 470.03 527.256H457.486V520.92H470.158C474.894 520.92 478.648 522.093 481.422 524.44C484.238 526.744 485.646 530.179 485.646 534.744C485.646 536.963 485.283 539.139 484.558 541.272C483.875 543.405 482.787 545.325 481.294 547.032C479.843 548.696 477.987 550.019 475.726 551C473.464 551.981 470.776 552.472 467.662 552.472H457.486ZM453.262 567V520.92H460.686V567H453.262ZM498.111 552.472V546.2H508.223C510.655 546.2 512.639 545.688 514.175 544.664C515.753 543.64 516.905 542.275 517.631 540.568C518.356 538.819 518.719 536.899 518.719 534.808C518.719 532.035 517.972 530.093 516.479 528.984C515.028 527.832 513.087 527.256 510.655 527.256H498.111V520.92H510.783C515.519 520.92 519.273 522.093 522.047 524.44C524.863 526.744 526.271 530.179 526.271 534.744C526.271 536.963 525.908 539.139 525.183 541.272C524.5 543.405 523.412 545.325 521.919 547.032C520.468 548.696 518.612 550.019 516.351 551C514.089 551.981 511.401 552.472 508.287 552.472H498.111ZM493.887 567V520.92H501.311V567H493.887Z" fill="white"/>
<g clip-path="url(#clip0_3_482)">
<path d="M289 428C275.8 428 265.12 438.8 265.12 452C265.12 465.2 275.8 476 289 476C302.2 476 313 465.2 313 452C313 438.8 302.2 428 289 428ZM217 236V260H241L284.2 351.08L268 380.48C266.08 383.84 265 387.8 265 392C265 405.2 275.8 416 289 416H433V392H294.04C292.36 392 291.04 390.68 291.04 389L291.4 387.56L302.2 368H391.6C400.6 368 408.52 363.08 412.6 355.64L455.56 277.76C456.52 276.08 457 274.04 457 272C457 265.4 451.6 260 445 260H267.52L256.24 236H217ZM409 428C395.8 428 385.12 438.8 385.12 452C385.12 465.2 395.8 476 409 476C422.2 476 433 465.2 433 452C433 438.8 422.2 428 409 428Z" fill="white"/>
</g>
<defs>
<clipPath id="clip0_3_482">
<rect width="288" height="288" fill="white" transform="translate(205 212)"/>
</clipPath>
</defs>
</svg>
