<svg width="357" height="336" viewBox="0 0 357 336" fill="none" xmlns="http://www.w3.org/2000/svg">
<path d="M0.832 288.92H37.248V295.384H22.72V335H15.36V295.384H0.832V288.92ZM50.7205 294.232C49.5258 294.232 48.5018 293.848 47.6485 293.08C46.7952 292.312 46.3685 291.267 46.3685 289.944C46.3685 288.621 46.7952 287.576 47.6485 286.808C48.5018 286.04 49.5258 285.656 50.7205 285.656C52.0005 285.656 53.0458 286.04 53.8565 286.808C54.6672 287.576 55.0725 288.621 55.0725 289.944C55.0725 291.267 54.6672 292.312 53.8565 293.08C53.0458 293.848 52.0005 294.232 50.7205 294.232ZM47.1365 335V311.064C47.1365 310.211 47.1152 309.123 47.0725 307.8C47.0725 306.435 47.0298 305.091 46.9445 303.768C46.9018 302.445 46.7952 301.4 46.6245 300.632L46.7525 300.12H54.3045V335H47.1365ZM82.973 335.576C79.773 335.576 76.9357 335.192 74.461 334.424C72.029 333.656 69.981 332.525 68.317 331.032C66.653 329.496 65.3943 327.597 64.541 325.336C63.7303 323.075 63.325 320.451 63.325 317.464C63.325 313.752 64.0077 310.552 65.373 307.864C66.7383 305.133 68.6583 303.043 71.133 301.592C73.6077 300.099 76.5303 299.352 79.901 299.352C83.6983 299.352 86.7703 300.141 89.117 301.72C91.4637 303.256 93.149 305.432 94.173 308.248C95.2397 311.021 95.6877 314.243 95.517 317.912L95.453 319.832H68.125V314.584H88.285V314.072C88.285 311.128 87.581 308.909 86.173 307.416C84.765 305.88 82.653 305.112 79.837 305.112C78.173 305.112 76.637 305.475 75.229 306.2C73.821 306.925 72.6903 308.163 71.837 309.912C71.0263 311.619 70.621 313.944 70.621 316.888V317.72C70.621 320.749 71.1543 323.139 72.221 324.888C73.3303 326.595 74.845 327.811 76.765 328.536C78.7277 329.261 80.9463 329.624 83.421 329.624C85.5543 329.624 87.389 329.432 88.925 329.048C90.5037 328.621 91.741 328.152 92.637 327.64H93.213V333.72C92.1037 334.232 90.6957 334.659 88.989 335C87.325 335.384 85.3197 335.576 82.973 335.576ZM104.574 335V313.048C104.574 312.195 104.553 311.107 104.51 309.784C104.51 308.419 104.467 307.075 104.382 305.752C104.339 304.429 104.233 303.384 104.062 302.616L104.19 302.104C105.385 301.635 106.835 301.187 108.542 300.76C110.291 300.333 112.062 299.992 113.854 299.736C115.689 299.48 117.331 299.352 118.782 299.352C120.958 299.352 122.985 299.587 124.862 300.056C126.739 300.483 128.425 301.272 129.918 302.424C131.411 303.533 132.563 305.091 133.374 307.096C134.227 309.059 134.654 311.576 134.654 314.648V335H127.486V315.096C127.486 312.493 127.102 310.488 126.334 309.08C125.609 307.672 124.521 306.712 123.07 306.2C121.662 305.645 119.977 305.368 118.014 305.368C116.691 305.368 115.305 305.517 113.854 305.816C112.403 306.115 111.123 306.456 110.014 306.84L111.166 304.856C111.379 305.496 111.529 306.307 111.614 307.288C111.699 308.269 111.742 309.336 111.742 310.488V335H104.574ZM161.882 335.768C157.999 335.768 154.671 335.064 151.898 333.656C149.167 332.248 147.077 330.179 145.626 327.448C144.175 324.717 143.45 321.389 143.45 317.464C143.45 313.667 144.218 310.424 145.754 307.736C147.29 305.005 149.445 302.936 152.218 301.528C154.991 300.077 158.234 299.352 161.946 299.352C163.439 299.352 164.762 299.459 165.914 299.672C167.109 299.885 168.026 300.141 168.666 300.44L168.474 306.328C167.962 306.115 167.215 305.88 166.234 305.624C165.295 305.368 164.101 305.24 162.65 305.24C158.767 305.24 155.802 306.307 153.754 308.44C151.749 310.531 150.746 313.539 150.746 317.464C150.746 320.237 151.173 322.541 152.026 324.376C152.922 326.211 154.223 327.597 155.93 328.536C157.679 329.432 159.813 329.88 162.33 329.88C163.781 329.88 165.039 329.752 166.106 329.496C167.215 329.24 168.197 328.92 169.05 328.536L168.09 330.584C167.877 329.859 167.727 329.005 167.642 328.024C167.557 327 167.514 325.933 167.514 324.824V297.56C167.514 296.664 167.493 295.512 167.45 294.104C167.407 292.696 167.343 291.331 167.258 290.008C167.215 288.643 167.109 287.597 166.938 286.872L167.066 286.36H174.682V322.264C174.682 323.117 174.682 324.227 174.682 325.592C174.725 326.957 174.767 328.301 174.81 329.624C174.895 330.904 175.023 331.928 175.194 332.696L175.002 333.208C173.21 333.891 171.226 334.488 169.05 335C166.917 335.512 164.527 335.768 161.882 335.768ZM198.874 335.768C193.754 335.768 189.893 334.872 187.29 333.08C184.687 331.288 183.386 328.493 183.386 324.696C183.386 322.221 184.005 320.173 185.242 318.552C186.479 316.931 188.229 315.715 190.49 314.904C192.751 314.093 195.397 313.688 198.426 313.688C200.602 313.688 202.437 313.88 203.93 314.264C205.423 314.605 206.746 314.947 207.898 315.288V320.344C206.874 320.003 205.573 319.704 203.994 319.448C202.458 319.149 201.007 319 199.642 319C196.485 319 194.117 319.427 192.538 320.28C191.002 321.091 190.234 322.563 190.234 324.696C190.234 326.701 190.981 328.152 192.474 329.048C193.967 329.901 196.122 330.328 198.938 330.328C200.559 330.328 202.117 330.2 203.61 329.944C205.103 329.645 206.49 329.219 207.77 328.664L206.554 330.776C206.426 330.349 206.319 329.901 206.234 329.432C206.149 328.963 206.063 328.493 205.978 328.024C205.935 327.512 205.893 326.957 205.85 326.36C205.85 325.763 205.85 325.08 205.85 324.312V313.944C205.85 311.469 205.487 309.613 204.762 308.376C204.079 307.096 203.034 306.264 201.626 305.88C200.218 305.453 198.447 305.24 196.314 305.24C194.607 305.24 192.901 305.453 191.194 305.88C189.487 306.264 188.122 306.691 187.098 307.16H186.522V301.144C188.058 300.547 189.765 300.099 191.642 299.8C193.562 299.501 195.418 299.352 197.21 299.352C199.471 299.352 201.541 299.544 203.418 299.928C205.338 300.312 207.002 301.037 208.41 302.104C209.861 303.128 210.97 304.6 211.738 306.52C212.549 308.397 212.954 310.872 212.954 313.944V322.2C212.954 323.053 212.954 324.163 212.954 325.528C212.997 326.893 213.061 328.237 213.146 329.56C213.231 330.84 213.359 331.864 213.53 332.632L213.338 333.144C211.93 333.656 210.373 334.125 208.666 334.552C206.959 334.936 205.253 335.235 203.546 335.448C201.839 335.661 200.282 335.768 198.874 335.768ZM237.193 335L242.312 304.408C242.739 301.677 243.422 299.309 244.361 297.304C245.299 295.299 246.515 293.635 248.009 292.312C249.545 290.989 251.443 290.008 253.705 289.368C256.009 288.728 258.761 288.408 261.961 288.408C263.539 288.408 265.161 288.493 266.825 288.664C268.531 288.835 270.217 289.112 271.881 289.496L272.009 290.264C271.881 291.075 271.774 292.12 271.689 293.4C271.646 294.68 271.625 295.981 271.625 297.304C271.625 298.584 271.625 299.651 271.625 300.504V335H264.265V298.2C264.265 297.261 264.265 296.387 264.265 295.576C264.307 294.765 264.414 293.997 264.585 293.272L265.737 295.32C265.182 295.107 264.499 294.957 263.689 294.872C262.921 294.787 262.089 294.744 261.193 294.744C258.59 294.744 256.521 295.107 254.985 295.832C253.449 296.557 252.275 297.624 251.465 299.032C250.697 300.44 250.121 302.253 249.737 304.472L244.681 335H237.193ZM243.977 321.496V315.224H267.465V321.496H243.977ZM287.486 320.472V314.2H297.598C300.03 314.2 302.014 313.688 303.55 312.664C305.128 311.64 306.28 310.275 307.006 308.568C307.731 306.819 308.094 304.899 308.094 302.808C308.094 300.035 307.347 298.093 305.854 296.984C304.403 295.832 302.462 295.256 300.03 295.256H287.486V288.92H300.158C304.894 288.92 308.648 290.093 311.422 292.44C314.238 294.744 315.646 298.179 315.646 302.744C315.646 304.963 315.283 307.139 314.558 309.272C313.875 311.405 312.787 313.325 311.294 315.032C309.843 316.696 307.987 318.019 305.726 319C303.464 319.981 300.776 320.472 297.662 320.472H287.486ZM283.262 335V288.92H290.686V335H283.262ZM328.111 320.472V314.2H338.223C340.655 314.2 342.639 313.688 344.175 312.664C345.753 311.64 346.905 310.275 347.631 308.568C348.356 306.819 348.719 304.899 348.719 302.808C348.719 300.035 347.972 298.093 346.479 296.984C345.028 295.832 343.087 295.256 340.655 295.256H328.111V288.92H340.783C345.519 288.92 349.273 290.093 352.047 292.44C354.863 294.744 356.271 298.179 356.271 302.744C356.271 304.963 355.908 307.139 355.183 309.272C354.5 311.405 353.412 313.325 351.919 315.032C350.468 316.696 348.612 318.019 346.351 319C344.089 319.981 341.401 320.472 338.287 320.472H328.111ZM323.887 335V288.92H331.311V335H323.887Z" fill="white"/>
<g clip-path="url(#clip0_0_1)">
<path d="M119 216C105.8 216 95.12 226.8 95.12 240C95.12 253.2 105.8 264 119 264C132.2 264 143 253.2 143 240C143 226.8 132.2 216 119 216ZM47 24V48H71L114.2 139.08L98 168.48C96.08 171.84 95 175.8 95 180C95 193.2 105.8 204 119 204H263V180H124.04C122.36 180 121.04 178.68 121.04 177L121.4 175.56L132.2 156H221.6C230.6 156 238.52 151.08 242.6 143.64L285.56 65.76C286.52 64.08 287 62.04 287 60C287 53.4 281.6 48 275 48H97.52L86.24 24H47ZM239 216C225.8 216 215.12 226.8 215.12 240C215.12 253.2 225.8 264 239 264C252.2 264 263 253.2 263 240C263 226.8 252.2 216 239 216Z" fill="white"/>
</g>
<defs>
<clipPath id="clip0_0_1">
<rect width="288" height="288" fill="white" transform="translate(35)"/>
</clipPath>
</defs>
</svg>
