<svg width="288" height="288" viewBox="0 0 288 288" fill="none" xmlns="http://www.w3.org/2000/svg">
<g clip-path="url(#clip0_3_448)">
<path d="M84 216C70.8 216 60.12 226.8 60.12 240C60.12 253.2 70.8 264 84 264C97.2 264 108 253.2 108 240C108 226.8 97.2 216 84 216ZM12 24V48H36L79.2 139.08L63 168.48C61.08 171.84 60 175.8 60 180C60 193.2 70.8 204 84 204H228V180H89.04C87.36 180 86.04 178.68 86.04 177L86.4 175.56L97.2 156H186.6C195.6 156 203.52 151.08 207.6 143.64L250.56 65.76C251.52 64.08 252 62.04 252 60C252 53.4 246.6 48 240 48H62.52L51.24 24H12ZM204 216C190.8 216 180.12 226.8 180.12 240C180.12 253.2 190.8 264 204 264C217.2 264 228 253.2 228 240C228 226.8 217.2 216 204 216Z" fill="white"/>
</g>
<defs>
<clipPath id="clip0_3_448">
<rect width="288" height="288" fill="white"/>
</clipPath>
</defs>
</svg>
